<?xml version="1.0" encoding="UTF-8" standalone="no"?>
<!DOCTYPE svg PUBLIC "-//W3C//DTD SVG 20010904//EN"
              "http://www.w3.org/TR/2001/REC-SVG-20010904/DTD/svg10.dtd">

<svg xmlns="http://www.w3.org/2000/svg"
     width="8.88889in" height="5.55556in"
     viewBox="0 0 640 400">
  <path id="パス"
        fill="none" stroke="black" stroke-width="1"
        d="M 112.64,192.28
           C 109.73,190.84 106.75,190.11 103.69,190.11
             101.98,190.11 99.55,190.32 96.39,190.75
             92.97,191.26 90.54,191.52 89.09,191.52
             92.50,185.80 95.19,177.78 97.16,167.45
             97.75,164.12 98.18,161.60 98.44,159.89
             99.88,155.98 100.61,153.46 100.61,152.34
             100.61,146.20 95.79,143.12 86.14,143.12
             81.79,143.12 75.41,144.52 67.00,147.30
             58.60,150.07 52.23,151.45 47.88,151.45
             45.48,151.45 43.34,150.98 41.47,150.05
             43.09,158.83 50.00,163.22 62.20,163.22
             64.25,163.22 67.22,162.37 71.09,160.67
             74.98,158.96 77.99,158.15 80.12,158.23
             80.12,158.23 81.16,158.36 81.16,158.36
             81.75,159.81 82.05,161.39 82.05,163.09
             82.05,173.94 80.77,183.75 78.20,192.53
             71.64,194.32 67.50,195.27 65.80,195.36
             68.44,189.64 69.77,184.56 69.77,180.12
             69.77,177.99 68.23,176.32 65.16,175.12
             62.94,174.27 60.55,173.84 57.98,173.84
             54.74,173.84 51.03,175.26 46.84,178.08
             47.10,178.33 48.64,179.39 51.45,181.27
             53.93,182.89 55.17,184.00 55.17,184.59
             55.17,186.14 54.83,188.36 54.14,191.25
             53.37,194.50 52.60,196.51 51.84,197.27
             50.13,199.06 45.31,200.55 37.38,201.75
             31.06,202.77 25.73,203.28 21.38,203.28
             17.71,203.28 15.02,202.65 13.31,201.38
             13.31,201.38 13.19,202.64 13.19,202.64
             13.19,205.98 15.58,208.96 20.36,211.61
             24.54,214.00 28.41,215.19 32.00,215.19
             34.56,215.19 40.19,213.53 48.89,210.20
             59.13,206.28 65.19,204.06 67.08,203.55
             69.89,202.86 73.22,202.43 77.06,202.27
             78.25,202.18 81.62,202.10 87.17,202.02
             82.30,204.65 77.44,207.25 72.58,209.81
             65.41,213.82 59.95,217.50 56.19,220.83
             51.07,225.43 48.52,229.83 48.52,234.02
             48.52,239.39 51.46,244.25 57.34,248.59
             62.80,252.52 68.35,254.48 73.98,254.48
             79.87,254.48 85.55,252.27 91.02,247.83
             96.72,243.05 99.58,237.80 99.58,232.09
             99.58,226.62 97.06,222.06 92.03,218.39
             87.85,215.40 82.73,213.44 76.67,212.50
             78.72,211.05 82.35,209.29 87.55,207.20
             92.75,205.11 96.47,204.02 98.69,203.92
             101.84,205.63 104.96,206.48 108.03,206.48
             110.51,206.48 112.73,205.89 114.69,204.70
             116.99,203.33 118.14,201.49 118.14,199.19
             118.14,196.38 116.30,194.07 112.64,192.28 Z
           M 79.55,238.75
           C 76.61,240.79 73.30,241.81 69.62,241.81
             66.22,241.81 63.32,240.96 60.92,239.25
             58.19,237.29 56.83,234.70 56.83,231.45
             56.83,228.38 58.15,225.82 60.80,223.78
             63.44,221.73 66.34,220.70 69.50,220.70
             73.08,220.70 76.24,221.43 78.97,222.88
             82.30,224.59 83.97,227.06 83.97,230.30
             83.97,233.88 82.49,236.70 79.55,238.75 Z
           M 229.89,196.89
           C 229.89,196.89 229.89,158.11 229.89,158.11
             229.89,157.17 230.08,155.73 230.47,153.77
             230.85,151.80 231.05,150.30 231.05,149.27
             231.05,145.01 228.05,141.34 222.08,138.27
             216.87,135.62 211.88,134.30 207.11,134.30
             203.27,134.30 199.72,135.15 196.48,136.86
             197.77,138.57 200.15,140.48 203.64,142.61
             207.74,145.01 210.39,146.80 211.58,147.98
             214.05,150.30 215.30,153.03 215.30,156.19
             215.30,156.19 215.30,164.77 215.30,164.77
             214.27,165.28 212.02,166.21 208.52,167.58
             205.02,168.95 202.75,169.71 201.73,169.88
             202.49,168.00 202.88,166.38 202.88,165.02
             202.88,159.73 198.35,157.08 189.31,157.08
             185.98,157.08 181.47,158.19 175.80,160.41
             170.13,162.62 165.84,163.73 162.94,163.73
             161.32,163.73 159.91,163.35 158.72,162.58
             159.83,168.13 161.58,171.98 163.97,174.11
             166.45,176.50 170.41,177.69 175.88,177.69
             176.81,177.69 177.96,177.43 179.33,176.92
             181.38,176.07 182.49,175.64 182.66,175.64
             180.95,180.34 174.38,188.92 162.94,201.38
             151.00,214.43 143.02,220.95 139.02,220.95
             138.41,220.95 137.85,220.82 137.34,220.56
             139.73,223.39 142.76,224.80 146.44,224.80
             152.66,224.80 160.00,220.66 168.45,212.38
             173.05,207.94 178.86,201.20 185.86,192.16
             186.37,191.47 187.69,189.55 189.83,186.39
             191.44,184.01 192.89,182.17 194.17,180.89
             196.57,178.41 198.45,175.98 199.81,173.59
             199.81,173.59 200.83,176.66 200.83,176.66
             203.13,178.28 204.84,179.18 205.95,179.36
             205.95,179.36 199.55,185.38 199.55,185.38
             202.02,185.20 204.76,184.09 207.75,182.05
             212.61,178.63 215.13,176.88 215.30,176.80
             215.30,176.80 215.30,182.55 215.30,182.55
             212.57,185.37 208.17,187.68 202.11,189.47
             196.90,191.00 191.95,191.77 187.27,191.77
             188.12,194.25 189.61,196.46 191.75,198.42
             194.05,200.64 196.39,201.75 198.78,201.75
             201.69,201.75 207.19,198.72 215.30,192.66
             215.30,192.66 215.30,196.12 215.30,196.12
             215.30,197.57 215.25,199.06 215.17,200.59
             215.34,202.48 215.98,203.72 217.09,204.31
             210.86,206.62 204.68,208.88 198.53,211.09
             190.00,214.00 183.85,215.45 180.09,215.45
             178.73,215.45 177.71,215.20 177.03,214.69
             179.76,220.92 183.64,224.03 188.67,224.03
             191.74,224.03 195.95,222.69 201.28,220.00
             206.61,217.30 210.09,215.95 211.72,215.95
             213.25,215.95 214.36,216.64 215.05,218.02
             215.05,218.02 215.05,247.83 215.05,247.83
             215.05,250.73 214.23,252.87 212.61,254.23
             213.97,254.58 214.66,254.75 214.66,254.75
             218.41,254.75 221.73,253.64 224.64,251.42
             227.88,248.94 229.50,245.91 229.50,242.33
             229.50,242.33 229.62,215.58 229.62,215.58
             230.14,214.46 230.41,213.31 230.41,212.12
             230.41,210.24 229.87,208.51 228.80,206.94
             227.73,205.36 226.30,204.35 224.52,203.92
             228.10,201.03 229.89,198.68 229.89,196.89 Z
           M 359.55,237.91
           C 357.75,236.59 355.66,235.92 353.28,235.92
             350.89,235.92 346.41,236.70 339.84,238.23
             333.27,239.77 328.19,240.53 324.61,240.53
             320.34,240.53 318.20,238.87 318.20,235.55
             318.20,230.77 321.23,226.88 327.30,223.89
             332.33,221.51 337.58,220.31 343.05,220.31
             343.05,223.81 345.09,225.56 349.19,225.56
             351.91,225.56 354.09,224.32 355.72,221.84
             357.16,219.62 357.89,217.11 357.89,214.30
             357.89,214.30 357.89,158.36 357.89,158.36
             357.89,157.42 358.08,155.93 358.47,153.89
             358.85,151.84 359.05,150.30 359.05,149.27
             359.05,145.01 356.05,141.34 350.08,138.27
             344.87,135.62 339.88,134.30 335.11,134.30
             331.27,134.30 327.72,135.15 324.48,136.86
             325.77,138.57 328.15,140.48 331.64,142.61
             335.57,145.09 338.17,146.88 339.45,147.98
             341.85,150.38 343.05,153.16 343.05,156.31
             343.05,156.31 343.05,175.12 343.05,175.12
             340.91,177.34 338.05,179.31 334.47,181.02
             330.88,182.73 327.64,183.58 324.73,183.58
             323.63,183.58 322.35,183.41 320.89,183.06
             321.49,186.82 323.80,190.15 327.81,193.05
             327.81,193.05 324.98,196.89 324.98,196.89
             322.25,193.90 317.65,192.37 311.17,192.28
             312.11,191.09 313.60,188.65 315.64,184.98
             317.52,181.83 319.15,179.48 320.52,177.94
             322.55,175.98 324.56,174.06 326.53,172.19
             328.57,169.79 329.59,167.19 329.59,164.38
             329.59,159.77 325.67,157.47 317.83,157.47
             314.07,157.47 309.56,158.79 304.31,161.44
             299.07,164.09 295.34,165.41 293.12,165.41
             291.07,165.41 289.28,164.77 287.75,163.48
             288.85,173.81 294.78,178.93 305.53,178.84
             293.25,195.99 286.94,204.82 286.59,205.34
             276.35,218.56 269.23,225.17 265.22,225.17
             264.28,225.17 263.55,224.84 263.05,224.16
             266.02,227.91 269.39,229.78 273.16,229.78
             278.70,229.78 285.10,225.52 292.36,216.98
             297.47,210.50 302.55,203.97 307.58,197.41
             309.71,198.86 311.50,202.44 312.95,208.16
             314.07,213.02 316.24,215.45 319.48,215.45
             323.33,215.45 326.02,212.72 327.55,207.25
             328.32,202.91 329.09,198.56 329.86,194.20
             330.63,194.37 331.39,194.45 332.16,194.45
             335.41,194.45 339.04,192.45 343.05,188.44
             343.05,188.44 343.05,212.12 343.05,212.12
             341.25,213.49 336.82,215.54 329.73,218.27
             323.75,220.65 319.83,223.12 317.95,225.69
             316.08,228.25 314.16,230.86 312.19,233.50
             310.05,236.66 308.98,239.64 308.98,242.45
             308.98,250.22 317.09,254.11 333.31,254.11
             352.59,254.11 362.23,250.52 362.23,243.36
             362.23,241.05 361.34,239.23 359.55,237.91 Z
           M 481.47,251.09
           C 484.33,247.98 485.77,244.63 485.77,241.05
             485.77,241.05 485.77,158.11 485.77,158.11
             485.77,157.17 485.98,155.75 486.41,153.83
             486.83,151.90 487.05,150.47 487.05,149.53
             487.05,145.18 484.05,141.42 478.08,138.27
             472.96,135.62 467.97,134.30 463.11,134.30
             459.27,134.30 455.72,135.15 452.48,136.86
             453.77,138.65 456.11,140.57 459.52,142.61
             463.61,145.09 466.21,146.88 467.33,147.98
             469.80,150.30 471.05,153.03 471.05,156.19
             471.05,156.19 471.05,249.38 471.05,249.38
             471.05,251.93 470.19,253.80 468.48,255.00
             469.50,255.51 470.57,255.77 471.69,255.77
             475.35,255.77 478.61,254.21 481.47,251.09 Z
           M 448.77,210.39
           C 454.22,204.29 456.95,198.00 456.95,191.52
             456.95,186.73 455.44,182.62 452.41,179.16
             449.38,175.70 445.48,173.55 440.70,172.70
             439.68,166.89 435.88,163.98 429.31,163.98
             426.07,163.98 422.88,164.71 419.72,166.17
             419.97,166.60 420.95,167.84 422.66,169.88
             424.10,171.50 424.83,172.78 424.83,173.72
             424.83,174.15 424.74,174.57 424.58,175.00
             420.65,177.39 417.24,180.50 414.34,184.34
             411.09,188.70 409.47,192.88 409.47,196.89
             409.47,202.18 411.73,207.28 416.25,212.19
             420.78,217.09 425.69,219.55 430.97,219.55
             437.38,219.55 443.30,216.50 448.77,210.39 Z
           M 438.45,202.39
           C 435.09,205.46 431.79,207.00 428.55,207.00
             425.82,207.00 423.02,205.75 420.16,203.23
             417.30,200.71 415.88,198.09 415.88,195.36
             415.88,189.89 421.29,184.86 432.12,180.25
             435.36,180.68 438.07,182.09 440.25,184.48
             442.43,186.87 443.52,189.73 443.52,193.05
             443.52,196.20 441.83,199.32 438.45,202.39 Z
           M 633.34,192.09
           C 631.29,190.51 629.16,189.72 626.94,189.72
             623.53,189.72 618.33,191.81 611.33,195.98
             611.33,195.98 611.33,158.11 611.33,158.11
             611.33,157.17 611.52,155.73 611.91,153.77
             612.29,151.80 612.48,150.30 612.48,149.27
             612.48,145.01 609.49,141.34 603.52,138.27
             598.40,135.62 593.41,134.30 588.55,134.30
             584.79,134.30 581.24,135.15 577.92,136.86
             579.20,138.57 581.59,140.48 585.09,142.61
             589.10,145.01 591.70,146.80 592.89,147.98
             595.29,150.30 596.48,153.03 596.48,156.19
             596.48,156.19 596.48,248.34 596.48,248.34
             596.48,251.50 595.54,253.72 593.66,255.00
             594.69,255.51 595.80,255.77 596.98,255.77
             600.58,255.77 603.86,254.21 606.84,251.09
             609.83,247.98 611.33,244.63 611.33,241.05
             611.33,241.05 611.33,204.19 611.33,204.19
             612.95,203.25 614.57,202.78 616.19,202.78
             617.73,202.78 619.61,203.42 621.83,204.70
             624.05,205.98 625.66,206.61 626.69,206.61
             629.07,206.61 631.29,205.71 633.34,203.92
             635.39,202.13 636.42,200.04 636.42,197.66
             636.42,195.52 635.39,193.67 633.34,192.09 Z
           M 587.27,186.64
           C 586.15,181.70 585.51,178.11 585.34,175.89
             584.24,188.95 580.78,197.83 574.97,202.52
             572.75,204.31 569.42,206.27 564.98,208.41
             560.30,210.62 556.76,211.82 554.38,211.98
             555.31,207.89 555.78,204.70 555.78,202.39
             555.78,196.08 552.24,192.24 545.16,190.88
             548.82,188.23 552.11,186.31 555.02,185.11
             557.05,184.26 560.68,183.23 565.89,182.05
             569.05,181.28 571.73,180.04 573.95,178.33
             576.77,176.20 578.17,173.72 578.17,170.91
             578.17,168.18 577.21,166.09 575.30,164.64
             573.38,163.18 571.01,162.45 568.19,162.45
             564.52,162.45 560.06,163.67 554.81,166.11
             549.56,168.54 546.34,169.75 545.16,169.75
             543.10,169.75 541.31,168.47 539.78,165.91
             539.95,170.77 540.65,174.31 541.89,176.53
             543.13,178.75 545.80,180.93 549.89,183.06
             549.29,183.57 547.19,185.28 543.61,188.19
             541.22,190.23 539.05,191.77 537.09,192.80
             541.27,196.63 543.36,200.26 543.36,203.67
             543.36,206.83 541.35,211.01 537.34,216.22
             537.08,217.59 536.95,218.87 536.95,220.06
             536.95,225.44 539.52,228.12 544.64,228.12
             551.30,228.12 560.13,224.67 571.14,217.75
             582.91,210.32 588.80,203.50 588.80,197.27
             588.80,194.80 588.29,191.26 587.27,186.64 Z" />
</svg>
